# xmcd
#
# Track frame offsets:
#	150
#	19560
#	38633
#	56511
#	72055
#	88659
#	103412
#	121036
#	138301
#	155754
#	179747
#	198838
#
# Disc length: 2927 seconds
#
# Revision: 1
# Processed by: cddbd v1.5.2PL0 Copyright (c) Steve Scherf et al.
# Submitted via: audiograbber 1.83.01
#
DISCID=9f0b6d0c
DTITLE=Tin Pan - Underdogs and Thundercats
DYEAR=2011
DGENRE=Blues
TTITLE0=Careless
TTITLE1=Bei Mir
TTITLE2=South
TTITLE3=Lord
TTITLE4=Ice Cream
TTITLE5=Jericho
TTITLE6=Kate
TTITLE7=Drunk Driving
TTITLE8=Summertime
TTITLE9=Lazy River
TTITLE10=Shake
TTITLE11=Blue Nature
EXTD=
EXTT0=
EXTT1=
EXTT2=
EXTT3=
EXTT4=
EXTT5=
EXTT6=
EXTT7=
EXTT8=
EXTT9=
EXTT10=
EXTT11=
PLAYORDER=
